<svg xmlns="http://www.w3.org/2000/svg" width="511.883" height="75.997" viewBox="0 0 511.883 75.997">
  <g id="Group_48" data-name="Group 48" transform="translate(380.046 -1671.236)">
    <g id="Group_47" data-name="Group 47">
      <path id="Path_34" data-name="Path 34" d="M28.258-54.051v12.724H49.267v16.669H28.258V0H6.954V-70.72H51.289v16.669ZM59.673,0V-74.764H80.682V0Zm53.36-64.111a9.023,9.023,0,0,1-3.23,7.2,12.639,12.639,0,0,1-8.507,2.762,12.328,12.328,0,0,1-8.408-2.86,9.047,9.047,0,0,1-3.28-7.1,8.759,8.759,0,0,1,3.181-7.028,12.747,12.747,0,0,1,8.507-2.688,12.866,12.866,0,0,1,8.507,2.688A8.7,8.7,0,0,1,113.033-64.111ZM90.792,0V-50.5H111.8V0Zm72.643-26.877L179.709,0H155.544l-5.425-11.491A52.32,52.32,0,0,1,148-16.768h-.2q-1.036,3.354-1.332,4.118T140.7,0H116.683L133.45-25.447,117.669-50.5h24.264l5.425,11.737a32.181,32.181,0,0,1,2.17,5.523h.2q1.43-4.291,2.022-5.622L156.875-50.5h22.932Z" transform="translate(-387 1746)" fill="#4d62d8"/>
      <path id="Path_35" data-name="Path 35" d="M28.061,1.233q-11.146,0-17.828-7.176t-6.682-20.2q0-13.069,6.682-20.22t17.828-7.151q8.581,0,14.326,4.34t6.781,12.526H39.6a8.849,8.849,0,0,0-3.526-7.151,13.087,13.087,0,0,0-8.014-2.466,13.3,13.3,0,0,0-10.8,5.055q-4.143,5.055-4.143,15.066,0,9.962,4.143,15.017a13.3,13.3,0,0,0,10.8,5.055,13.087,13.087,0,0,0,8.014-2.466,8.8,8.8,0,0,0,3.526-7.1h9.567Q48.133-7.447,42.387-3.107T28.061,1.233ZM90.5-13.759V-25.349H84.134q-20.22,0-20.22,11a7.126,7.126,0,0,0,2.959,6.14,13.345,13.345,0,0,0,7.989,2.145,20.191,20.191,0,0,0,8.877-2.071A17.04,17.04,0,0,0,90.5-13.759Zm0,8.384q-7.1,6.608-18.3,6.608-7.792,0-12.822-4.217a13.538,13.538,0,0,1-5.03-10.874q0-18.346,31.612-18.346H90.5a39.873,39.873,0,0,0-.592-8.162,6.772,6.772,0,0,0-3.3-4.217q-2.712-1.677-8.63-1.677-12.428,0-12.822,8.877H55.875q1.036-16.126,22.587-16.126,10.061,0,15.683,3.995t5.622,15.683V0H90.5Zm50.2-38.467a20.83,20.83,0,0,0-5.671-.592q-7.1,0-12.181,7.447V0h-9.321V-52.325h9.321v7.3q5.869-8.482,13.611-8.482a24.833,24.833,0,0,1,4.241.395ZM169.4,1.233q-11.54,0-18.543-7.225t-7-20.146q0-12.822,6.781-20.1t17.729-7.274q11.195,0,17.877,7.151t6.682,20.22v2.219h-39.4q.592,9.074,5.006,13.463A14.82,14.82,0,0,0,169.4-6.066a16.072,16.072,0,0,0,8.8-2.49,8.38,8.38,0,0,0,4.118-7.077h9.617a17.351,17.351,0,0,1-7.323,12.477A25.769,25.769,0,0,1,169.4,1.233Zm13.71-32.45q-1.134-7.545-5.08-11.293a13.507,13.507,0,0,0-9.666-3.748,13.542,13.542,0,0,0-9.567,3.723q-3.995,3.723-5.08,11.318Zm42.461,32.45q-11.54,0-18.543-7.225t-7-20.146q0-12.822,6.781-20.1t17.729-7.274q11.195,0,17.877,7.151t6.682,20.22v2.219h-39.4q.592,9.074,5.006,13.463a14.82,14.82,0,0,0,10.874,4.389,16.072,16.072,0,0,0,8.8-2.49,8.38,8.38,0,0,0,4.118-7.077h9.617a17.351,17.351,0,0,1-7.323,12.477A25.769,25.769,0,0,1,225.573,1.233Zm13.71-32.45q-1.134-7.545-5.08-11.293a13.507,13.507,0,0,0-9.666-3.748,13.542,13.542,0,0,0-9.567,3.723q-3.995,3.723-5.08,11.318Zm47.393-12.625A20.83,20.83,0,0,0,281-44.434q-7.1,0-12.181,7.447V0H259.5V-52.325h9.321v7.3q5.869-8.482,13.611-8.482a24.833,24.833,0,0,1,4.241.395ZM311.828,1.233q-21.453,0-22.439-16.866h9.321q.1,9.567,13.02,9.567,5.77,0,8.8-2.392a7.339,7.339,0,0,0,3.033-5.992,5.127,5.127,0,0,0-2.959-5.006q-2.959-1.455-12.206-3.773t-13.513-5.178q-4.266-2.86-4.266-10.061a13.263,13.263,0,0,1,5.3-10.776q5.3-4.266,14.178-4.266,20.565,0,21.009,14.647h-9.271q-.493-7.4-11.1-7.4a15.385,15.385,0,0,0-7.767,1.775,5.65,5.65,0,0,0-3.082,5.178,4.7,4.7,0,0,0,2.367,4.414q2.367,1.356,11.861,3.649t14.1,5.351q4.611,3.058,4.611,10.554a14.753,14.753,0,0,1-5.7,11.861Q321.444,1.233,311.828,1.233Z" transform="translate(-201 1746)" fill="#7281e0"/>
    </g>
  </g>
</svg>
